# Blender 4.2.0
# www.blender.org
mtllib cube_structure.mtl
o Cube
v 0.500000 0.500000 -0.500000
v 0.500000 -0.500000 -0.500000
v 0.500000 0.500000 0.500000
v 0.500000 -0.500000 0.500000
v -0.500000 0.500000 -0.500000
v -0.500000 -0.500000 -0.500000
v -0.500000 0.500000 0.500000
v -0.500000 -0.500000 0.500000
vn -0.0000 1.0000 -0.0000
vn -0.0000 -0.0000 1.0000
vn -1.0000 -0.0000 -0.0000
vn -0.0000 -1.0000 -0.0000
vn 1.0000 -0.0000 -0.0000
vn -0.0000 -0.0000 -1.0000
vt 0.499318 0.014197
vt 0.499318 0.324427
vt 0.013920 0.324427
vt 0.013920 0.014197
vt 0.499730 0.332761
vt 0.501427 0.666092
vt 0.008217 0.667239
vt 0.006520 0.333908
vt 0.990721 0.335501
vt 0.986681 0.665209
vt 0.511956 0.667186
vt 0.515997 0.337478
vt 0.994675 0.012927
vt 0.994675 0.330948
vt 0.515939 0.330948
vt 0.515939 0.012927
vt 0.500728 0.666804
vt 0.500319 1.000137
vt 0.001928 0.999863
vt 0.002337 0.666530
vt 0.989905 0.675218
vt 0.989741 0.994145
vt 0.510127 0.994094
vt 0.510290 0.675167
s 0
usemtl Material.001
f 1/1/1 5/2/1 7/3/1 3/4/1
f 4/5/2 3/6/2 7/7/2 8/8/2
f 8/9/3 7/10/3 5/11/3 6/12/3
f 6/13/4 2/14/4 4/15/4 8/16/4
f 2/17/5 1/18/5 3/19/5 4/20/5
f 6/21/6 5/22/6 1/23/6 2/24/6
